P2
64 64
255
0 4 8 12 16 20 24 28 32 36 40 44 48 52 56 60 64 68 72 76 80 85 89 93 97 101 105 109 113 117 121 125 129 133 137 141 145 149 153 157 161 165 170 174 178 182 186 190 194 198 202 206 210 214 218 222 226 230 234 238 242 246 250 255 
0 4 8 12 16 20 24 28 32 36 40 44 48 52 56 60 64 68 72 76 80 85 89 93 97 101 105 109 113 117 121 125 129 133 137 141 145 149 153 157 161 165 170 174 178 182 186 190 194 198 202 206 210 214 218 222 226 230 234 238 242 246 250 255 
0 4 8 12 16 20 24 28 32 36 40 44 48 52 56 60 64 68 72 76 80 85 89 93 97 101 105 109 113 117 121 125 129 133 137 141 145 149 153 157 161 165 170 174 178 182 186 190 194 198 202 206 210 214 218 222 226 230 234 238 242 246 250 255 
0 4 8 12 16 20 24 28 32 36 40 44 48 52 56 60 64 68 72 76 80 85 89 93 97 101 105 109 113 117 121 125 129 133 137 141 145 149 153 157 161 165 170 174 178 182 186 190 194 198 202 206 210 214 218 222 226 230 234 238 242 246 250 255 
0 4 8 12 16 20 24 28 32 36 40 44 48 52 56 60 64 68 72 76 80 85 89 93 97 101 105 109 113 117 121 125 129 133 137 141 145 149 153 157 161 165 170 174 178 182 186 190 194 198 202 206 210 214 218 222 226 230 234 238 242 246 250 255 
0 4 8 12 16 20 24 28 32 36 40 44 48 52 56 60 64 68 72 76 80 85 89 93 97 101 105 109 113 117 121 125 129 133 137 141 145 149 153 157 161 165 170 174 178 182 186 190 194 198 202 206 210 214 218 222 226 230 234 238 242 246 250 255 
0 4 8 12 16 20 24 28 32 36 40 44 48 52 56 60 64 68 72 76 80 85 89 93 97 101 105 109 113 117 121 125 129 133 137 141 145 149 153 157 161 165 170 174 178 182 186 190 194 198 202 206 210 214 218 222 226 230 234 238 242 246 250 255 
0 4 8 12 16 20 24 28 32 36 40 44 48 52 56 60 64 68 72 76 80 85 89 93 97 101 105 109 113 117 121 125 129 133 137 141 145 149 153 157 161 165 170 174 178 182 186 190 194 198 202 206 210 214 218 222 226 230 234 238 242 246 250 255 
0 4 8 12 16 20 24 28 32 36 40 44 48 52 56 60 64 68 72 76 80 85 89 93 97 101 105 109 113 117 121 125 129 133 137 141 145 149 153 157 161 165 170 174 178 182 186 190 194 198 202 206 210 214 218 222 226 230 234 238 242 246 250 255 
0 4 8 12 16 20 24 28 32 36 40 44 48 52 56 60 64 68 72 76 80 85 89 93 97 101 105 109 113 117 121 125 129 133 137 141 145 149 153 157 161 165 170 174 178 182 186 190 194 198 202 206 210 214 218 222 226 230 234 238 242 246 250 255 
0 4 8 12 16 20 24 28 32 36 40 44 48 52 56 60 64 68 72 76 80 85 89 93 97 101 105 109 113 117 121 125 129 133 137 141 145 149 153 157 161 165 170 174 178 182 186 190 194 198 202 206 210 214 218 222 226 230 234 238 242 246 250 255 
0 4 8 12 16 20 24 28 32 36 40 44 48 52 56 60 64 68 72 76 80 85 89 93 97 101 105 109 113 117 121 125 129 133 137 141 145 149 153 157 161 165 170 174 178 182 186 190 194 198 202 206 210 214 218 222 226 230 234 238 242 246 250 255 
0 4 8 12 16 20 24 28 32 36 40 44 48 52 56 60 64 68 72 76 80 85 89 93 97 101 105 109 113 117 121 125 129 133 137 141 145 149 153 157 161 165 170 174 178 182 186 190 194 198 202 206 210 214 218 222 226 230 234 238 242 246 250 255 
0 4 8 12 16 20 24 28 32 36 40 44 48 52 56 60 64 68 72 76 80 85 89 93 97 101 105 109 113 117 121 125 129 133 137 141 145 149 153 157 161 165 170 174 178 182 186 190 194 198 202 206 210 214 218 222 226 230 234 238 242 246 250 255 
0 4 8 12 16 20 24 28 32 36 40 44 48 52 56 60 64 68 72 76 80 85 89 93 97 101 105 109 113 117 121 125 129 133 137 141 145 149 153 157 161 165 170 174 178 182 186 190 194 198 202 206 210 214 218 222 226 230 234 238 242 246 250 255 
0 4 8 12 16 20 24 28 32 36 40 44 48 52 56 60 64 68 72 76 80 85 89 93 97 101 105 109 113 117 121 125 129 133 137 141 145 149 153 157 161 165 170 174 178 182 186 190 194 198 202 206 210 214 218 222 226 230 234 238 242 246 250 255 
0 4 8 12 16 20 24 28 32 36 40 44 48 52 56 60 64 68 72 76 80 85 89 93 97 101 105 109 113 117 121 125 129 133 137 141 145 149 153 157 161 165 170 174 178 182 186 190 194 198 202 206 210 214 218 222 226 230 234 238 242 246 250 255 
0 4 8 12 16 20 24 28 32 36 40 44 48 52 56 60 64 68 72 76 80 85 89 93 97 101 105 109 113 117 121 125 129 133 137 141 145 149 153 157 161 165 170 174 178 182 186 190 194 198 202 206 210 214 218 222 226 230 234 238 242 246 250 255 
0 4 8 12 16 20 24 28 32 36 40 44 48 52 56 60 64 68 72 76 80 85 89 93 97 101 105 109 113 117 121 125 129 133 137 141 145 149 153 157 161 165 170 174 178 182 186 190 194 198 202 206 210 214 218 222 226 230 234 238 242 246 250 255 
0 4 8 12 16 20 24 28 32 36 40 44 48 52 56 60 64 68 72 76 80 85 89 93 97 101 105 109 113 117 121 125 129 133 137 141 145 149 153 157 161 165 170 174 178 182 186 190 194 198 202 206 210 214 218 222 226 230 234 238 242 246 250 255 
0 4 8 12 16 20 24 28 32 36 40 44 48 52 56 60 64 68 72 76 80 85 89 93 97 101 105 109 113 117 121 125 129 133 137 141 145 149 153 157 161 165 170 174 178 182 186 190 194 198 202 206 210 214 218 222 226 230 234 238 242 246 250 255 
0 4 8 12 16 20 24 28 32 36 40 44 48 52 56 60 64 68 72 76 80 85 89 93 97 101 105 109 113 117 121 125 129 133 137 141 145 149 153 157 161 165 170 174 178 182 186 190 194 198 202 206 210 214 218 222 226 230 234 238 242 246 250 255 
0 4 8 12 16 20 24 28 32 36 40 44 48 52 56 60 64 68 72 76 80 85 89 93 97 101 105 109 113 117 121 125 129 133 137 141 145 149 153 157 161 165 170 174 178 182 186 190 194 198 202 206 210 214 218 222 226 230 234 238 242 246 250 255 
0 4 8 12 16 20 24 28 32 36 40 44 48 52 56 60 64 68 72 76 80 85 89 93 97 101 105 109 113 117 121 125 129 133 137 141 145 149 153 157 161 165 170 174 178 182 186 190 194 198 202 206 210 214 218 222 226 230 234 238 242 246 250 255 
0 4 8 12 16 20 24 28 32 36 40 44 48 52 56 60 64 68 72 76 80 85 89 93 97 101 105 109 113 117 121 125 129 133 137 141 145 149 153 157 161 165 170 174 178 182 186 190 194 198 202 206 210 214 218 222 226 230 234 238 242 246 250 255 
0 4 8 12 16 20 24 28 32 36 40 44 48 52 56 60 64 68 72 76 80 85 89 93 97 101 105 109 113 117 121 125 129 133 137 141 145 149 153 157 161 165 170 174 178 182 186 190 194 198 202 206 210 214 218 222 226 230 234 238 242 246 250 255 
0 4 8 12 16 20 24 28 32 36 40 44 48 52 56 60 64 68 72 76 80 85 89 93 97 101 105 109 113 117 121 125 129 133 137 141 145 149 153 157 161 165 170 174 178 182 186 190 194 198 202 206 210 214 218 222 226 230 234 238 242 246 250 255 
0 4 8 12 16 20 24 28 32 36 40 44 48 52 56 60 64 68 72 76 80 85 89 93 97 101 105 109 113 117 121 125 129 133 137 141 145 149 153 157 161 165 170 174 178 182 186 190 194 198 202 206 210 214 218 222 226 230 234 238 242 246 250 255 
0 4 8 12 16 20 24 28 32 36 40 44 48 52 56 60 64 68 72 76 80 85 89 93 97 101 105 109 113 117 121 125 129 133 137 141 145 149 153 157 161 165 170 174 178 182 186 190 194 198 202 206 210 214 218 222 226 230 234 238 242 246 250 255 
0 4 8 12 16 20 24 28 32 36 40 44 48 52 56 60 64 68 72 76 80 85 89 93 97 101 105 109 113 117 121 125 129 133 137 141 145 149 153 157 161 165 170 174 178 182 186 190 194 198 202 206 210 214 218 222 226 230 234 238 242 246 250 255 
0 4 8 12 16 20 24 28 32 36 40 44 48 52 56 60 64 68 72 76 80 85 89 93 97 101 105 109 113 117 121 125 129 133 137 141 145 149 153 157 161 165 170 174 178 182 186 190 194 198 202 206 210 214 218 222 226 230 234 238 242 246 250 255 
0 4 8 12 16 20 24 28 32 36 40 44 48 52 56 60 64 68 72 76 80 85 89 93 97 101 105 109 113 117 121 125 129 133 137 141 145 149 153 157 161 165 170 174 178 182 186 190 194 198 202 206 210 214 218 222 226 230 234 238 242 246 250 255 
0 4 8 12 16 20 24 28 32 36 40 44 48 52 56 60 64 68 72 76 80 85 89 93 97 101 105 109 113 117 121 125 129 133 137 141 145 149 153 157 161 165 170 174 178 182 186 190 194 198 202 206 210 214 218 222 226 230 234 238 242 246 250 255 
0 4 8 12 16 20 24 28 32 36 40 44 48 52 56 60 64 68 72 76 80 85 89 93 97 101 105 109 113 117 121 125 129 133 137 141 145 149 153 157 161 165 170 174 178 182 186 190 194 198 202 206 210 214 218 222 226 230 234 238 242 246 250 255 
0 4 8 12 16 20 24 28 32 36 40 44 48 52 56 60 64 68 72 76 80 85 89 93 97 101 105 109 113 117 121 125 129 133 137 141 145 149 153 157 161 165 170 174 178 182 186 190 194 198 202 206 210 214 218 222 226 230 234 238 242 246 250 255 
0 4 8 12 16 20 24 28 32 36 40 44 48 52 56 60 64 68 72 76 80 85 89 93 97 101 105 109 113 117 121 125 129 133 137 141 145 149 153 157 161 165 170 174 178 182 186 190 194 198 202 206 210 214 218 222 226 230 234 238 242 246 250 255 
0 4 8 12 16 20 24 28 32 36 40 44 48 52 56 60 64 68 72 76 80 85 89 93 97 101 105 109 113 117 121 125 129 133 137 141 145 149 153 157 161 165 170 174 178 182 186 190 194 198 202 206 210 214 218 222 226 230 234 238 242 246 250 255 
0 4 8 12 16 20 24 28 32 36 40 44 48 52 56 60 64 68 72 76 80 85 89 93 97 101 105 109 113 117 121 125 129 133 137 141 145 149 153 157 161 165 170 174 178 182 186 190 194 198 202 206 210 214 218 222 226 230 234 238 242 246 250 255 
0 4 8 12 16 20 24 28 32 36 40 44 48 52 56 60 64 68 72 76 80 85 89 93 97 101 105 109 113 117 121 125 129 133 137 141 145 149 153 157 161 165 170 174 178 182 186 190 194 198 202 206 210 214 218 222 226 230 234 238 242 246 250 255 
0 4 8 12 16 20 24 28 32 36 40 44 48 52 56 60 64 68 72 76 80 85 89 93 97 101 105 109 113 117 121 125 129 133 137 141 145 149 153 157 161 165 170 174 178 182 186 190 194 198 202 206 210 214 218 222 226 230 234 238 242 246 250 255 
0 4 8 12 16 20 24 28 32 36 40 44 48 52 56 60 64 68 72 76 80 85 89 93 97 101 105 109 113 117 121 125 129 133 137 141 145 149 153 157 161 165 170 174 178 182 186 190 194 198 202 206 210 214 218 222 226 230 234 238 242 246 250 255 
0 4 8 12 16 20 24 28 32 36 40 44 48 52 56 60 64 68 72 76 80 85 89 93 97 101 105 109 113 117 121 125 129 133 137 141 145 149 153 157 161 165 170 174 178 182 186 190 194 198 202 206 210 214 218 222 226 230 234 238 242 246 250 255 
0 4 8 12 16 20 24 28 32 36 40 44 48 52 56 60 64 68 72 76 80 85 89 93 97 101 105 109 113 117 121 125 129 133 137 141 145 149 153 157 161 165 170 174 178 182 186 190 194 198 202 206 210 214 218 222 226 230 234 238 242 246 250 255 
0 4 8 12 16 20 24 28 32 36 40 44 48 52 56 60 64 68 72 76 80 85 89 93 97 101 105 109 113 117 121 125 129 133 137 141 145 149 153 157 161 165 170 174 178 182 186 190 194 198 202 206 210 214 218 222 226 230 234 238 242 246 250 255 
0 4 8 12 16 20 24 28 32 36 40 44 48 52 56 60 64 68 72 76 80 85 89 93 97 101 105 109 113 117 121 125 129 133 137 141 145 149 153 157 161 165 170 174 178 182 186 190 194 198 202 206 210 214 218 222 226 230 234 238 242 246 250 255 
0 4 8 12 16 20 24 28 32 36 40 44 48 52 56 60 64 68 72 76 80 85 89 93 97 101 105 109 113 117 121 125 129 133 137 141 145 149 153 157 161 165 170 174 178 182 186 190 194 198 202 206 210 214 218 222 226 230 234 238 242 246 250 255 
0 4 8 12 16 20 24 28 32 36 40 44 48 52 56 60 64 68 72 76 80 85 89 93 97 101 105 109 113 117 121 125 129 133 137 141 145 149 153 157 161 165 170 174 178 182 186 190 194 198 202 206 210 214 218 222 226 230 234 238 242 246 250 255 
0 4 8 12 16 20 24 28 32 36 40 44 48 52 56 60 64 68 72 76 80 85 89 93 97 101 105 109 113 117 121 125 129 133 137 141 145 149 153 157 161 165 170 174 178 182 186 190 194 198 202 206 210 214 218 222 226 230 234 238 242 246 250 255 
0 4 8 12 16 20 24 28 32 36 40 44 48 52 56 60 64 68 72 76 80 85 89 93 97 101 105 109 113 117 121 125 129 133 137 141 145 149 153 157 161 165 170 174 178 182 186 190 194 198 202 206 210 214 218 222 226 230 234 238 242 246 250 255 
0 4 8 12 16 20 24 28 32 36 40 44 48 52 56 60 64 68 72 76 80 85 89 93 97 101 105 109 113 117 121 125 129 133 137 141 145 149 153 157 161 165 170 174 178 182 186 190 194 198 202 206 210 214 218 222 226 230 234 238 242 246 250 255 
0 4 8 12 16 20 24 28 32 36 40 44 48 52 56 60 64 68 72 76 80 85 89 93 97 101 105 109 113 117 121 125 129 133 137 141 145 149 153 157 161 165 170 174 178 182 186 190 194 198 202 206 210 214 218 222 226 230 234 238 242 246 250 255 
0 4 8 12 16 20 24 28 32 36 40 44 48 52 56 60 64 68 72 76 80 85 89 93 97 101 105 109 113 117 121 125 129 133 137 141 145 149 153 157 161 165 170 174 178 182 186 190 194 198 202 206 210 214 218 222 226 230 234 238 242 246 250 255 
0 4 8 12 16 20 24 28 32 36 40 44 48 52 56 60 64 68 72 76 80 85 89 93 97 101 105 109 113 117 121 125 129 133 137 141 145 149 153 157 161 165 170 174 178 182 186 190 194 198 202 206 210 214 218 222 226 230 234 238 242 246 250 255 
0 4 8 12 16 20 24 28 32 36 40 44 48 52 56 60 64 68 72 76 80 85 89 93 97 101 105 109 113 117 121 125 129 133 137 141 145 149 153 157 161 165 170 174 178 182 186 190 194 198 202 206 210 214 218 222 226 230 234 238 242 246 250 255 
0 4 8 12 16 20 24 28 32 36 40 44 48 52 56 60 64 68 72 76 80 85 89 93 97 101 105 109 113 117 121 125 129 133 137 141 145 149 153 157 161 165 170 174 178 182 186 190 194 198 202 206 210 214 218 222 226 230 234 238 242 246 250 255 
0 4 8 12 16 20 24 28 32 36 40 44 48 52 56 60 64 68 72 76 80 85 89 93 97 101 105 109 113 117 121 125 129 133 137 141 145 149 153 157 161 165 170 174 178 182 186 190 194 198 202 206 210 214 218 222 226 230 234 238 242 246 250 255 
0 4 8 12 16 20 24 28 32 36 40 44 48 52 56 60 64 68 72 76 80 85 89 93 97 101 105 109 113 117 121 125 129 133 137 141 145 149 153 157 161 165 170 174 178 182 186 190 194 198 202 206 210 214 218 222 226 230 234 238 242 246 250 255 
0 4 8 12 16 20 24 28 32 36 40 44 48 52 56 60 64 68 72 76 80 85 89 93 97 101 105 109 113 117 121 125 129 133 137 141 145 149 153 157 161 165 170 174 178 182 186 190 194 198 202 206 210 214 218 222 226 230 234 238 242 246 250 255 
0 4 8 12 16 20 24 28 32 36 40 44 48 52 56 60 64 68 72 76 80 85 89 93 97 101 105 109 113 117 121 125 129 133 137 141 145 149 153 157 161 165 170 174 178 182 186 190 194 198 202 206 210 214 218 222 226 230 234 238 242 246 250 255 
0 4 8 12 16 20 24 28 32 36 40 44 48 52 56 60 64 68 72 76 80 85 89 93 97 101 105 109 113 117 121 125 129 133 137 141 145 149 153 157 161 165 170 174 178 182 186 190 194 198 202 206 210 214 218 222 226 230 234 238 242 246 250 255 
0 4 8 12 16 20 24 28 32 36 40 44 48 52 56 60 64 68 72 76 80 85 89 93 97 101 105 109 113 117 121 125 129 133 137 141 145 149 153 157 161 165 170 174 178 182 186 190 194 198 202 206 210 214 218 222 226 230 234 238 242 246 250 255 
0 4 8 12 16 20 24 28 32 36 40 44 48 52 56 60 64 68 72 76 80 85 89 93 97 101 105 109 113 117 121 125 129 133 137 141 145 149 153 157 161 165 170 174 178 182 186 190 194 198 202 206 210 214 218 222 226 230 234 238 242 246 250 255 
0 4 8 12 16 20 24 28 32 36 40 44 48 52 56 60 64 68 72 76 80 85 89 93 97 101 105 109 113 117 121 125 129 133 137 141 145 149 153 157 161 165 170 174 178 182 186 190 194 198 202 206 210 214 218 222 226 230 234 238 242 246 250 255 
0 4 8 12 16 20 24 28 32 36 40 44 48 52 56 60 64 68 72 76 80 85 89 93 97 101 105 109 113 117 121 125 129 133 137 141 145 149 153 157 161 165 170 174 178 182 186 190 194 198 202 206 210 214 218 222 226 230 234 238 242 246 250 255 
